HIERARCHY
ROOT Hips
{
    OFFSET 0.000000 0.000000 0.000000
    CHANNELS 6 Xposition Yposition Zposition Zrotation Xrotation Yrotation
    JOINT Spine
    {
        OFFSET -0.000000 7.236184 0.000000
        CHANNELS 3 Zrotation Xrotation Yrotation
        JOINT Spine1
        {
            OFFSET -0.000000 20.420147 0.000000
            CHANNELS 3 Zrotation Xrotation Yrotation
            JOINT Neck
            {
                OFFSET -0.000000 20.336288 1.848754
                CHANNELS 3 Zrotation Xrotation Yrotation
                JOINT Head
                {
                    OFFSET -0.000000 12.354461 -1.764923
                    CHANNELS 3 Zrotation Xrotation Yrotation
                    End Site
                    {
                        OFFSET -0.000000 22.061537 0.000000
                    }
                }
            }
            JOINT LeftShoulder
            {
                OFFSET 3.573296 18.396038 -0.314103
                CHANNELS 3 Zrotation Xrotation Yrotation
                JOINT LeftArm
                {
                    OFFSET 10.880760 0.000000 0.000000
                    CHANNELS 3 Zrotation Xrotation Yrotation
                    JOINT LeftForeArm
                    {
                        OFFSET 27.185530 0.000000 0.000000
                        CHANNELS 3 Zrotation Xrotation Yrotation
                        JOINT LeftHand
                        {
                            OFFSET 27.825975 0.000000 0.000000
                            CHANNELS 3 Zrotation Xrotation Yrotation
                            End Site
                            {
                                OFFSET 13.236923 0.000000 0.000000
                            }
                        }
                    }
                }
            }
            JOINT RightShoulder
            {
                OFFSET -3.474926 18.396038 -0.314103
                CHANNELS 3 Zrotation Xrotation Yrotation
                JOINT RightArm
                {
                    OFFSET -10.880760 0.000000 0.000000
                    CHANNELS 3 Zrotation Xrotation Yrotation
                    JOINT RightForeArm
                    {
                        OFFSET -27.185530 0.000000 0.000000
                        CHANNELS 3 Zrotation Xrotation Yrotation
                        JOINT RightHand
                        {
                            OFFSET -27.825975 0.000000 0.000000
                            CHANNELS 3 Zrotation Xrotation Yrotation
                            End Site
                            {
                                OFFSET -13.236923 0.000000 0.000000
                            }
                        }
                    }
                }
            }
        }
    }
    JOINT LeftUpLeg
    {
        OFFSET 8.824615 0.000000 0.000000
        CHANNELS 3 Zrotation Xrotation Yrotation
        JOINT LeftLeg
        {
            OFFSET -0.000000 -35.111282 0.000000
            CHANNELS 3 Zrotation Xrotation Yrotation
            JOINT LeftFoot
            {
                OFFSET -0.000000 -42.324711 0.000000
                CHANNELS 3 Zrotation Xrotation Yrotation
                JOINT LeftToeBase
                {
                    OFFSET -0.000000 -5.735999 13.236923
                    CHANNELS 3 Zrotation Xrotation Yrotation
                    End Site
                    {
                        OFFSET -0.000000 0.000000 3.529846
                    }
                }
            }
        }
    }
    JOINT RightUpLeg
    {
        OFFSET -8.824615 0.000000 0.000000
        CHANNELS 3 Zrotation Xrotation Yrotation
        JOINT RightLeg
        {
            OFFSET -0.000000 -35.111282 0.000000
            CHANNELS 3 Zrotation Xrotation Yrotation
            JOINT RightFoot
            {
                OFFSET -0.000000 -42.324711 0.000000
                CHANNELS 3 Zrotation Xrotation Yrotation
                JOINT RightToeBase
                {
                    OFFSET -0.000000 -5.735999 13.236923
                    CHANNELS 3 Zrotation Xrotation Yrotation
                    End Site
                    {
                        OFFSET -0.000000 0.000000 3.529846
                    }
                }
            }
        }
    }
}
MOTION
Frames:    4
Frame Time:    0.008333
-8.106741    71.404060    122.546341    4.611650    -30.775671    -175.003983    1.413449    -1.440359    0.937390    3.860267    8.935273    0.617930    2.214853    -2.570876    -1.676831    4.286016    -26.512161    -0.552984    18.237478    -13.492799    -17.370554    -12.011776    1.032792    -79.177567    14.789538    8.705389    -9.963294    54.558075    4.000634    -11.645449    -15.280120    -2.818546    18.107082    15.121756    -7.794947    61.593616    -28.372339    -3.907996    26.031429    -35.411476    0.131557    8.319056    17.131353    -76.939255    11.738920    3.566490    56.169579    6.274980    -5.369550    -8.119333    -17.059168    -0.413617    -6.620136    0.464322    -24.808271    -70.873833    -19.791468    1.272111    52.660366    9.691433    4.438423    -8.186242    -17.517216    -1.667849    -2.991236    1.811499    
-8.115048    71.522255    122.527077    4.596827    -30.810476    -174.971390    1.406850    -1.485562    0.925221    3.864763    8.882998    0.606635    2.117464    -2.584121    -1.770950    4.703516    -26.252199    -0.491719    18.247961    -13.486930    -17.320482    -11.973586    1.102545    -79.289871    14.847843    8.720681    -10.007233    54.647030    4.054509    -11.570701    -15.228534    -2.735106    18.083454    15.161110    -7.708573    61.506691    -28.568987    -4.051401    26.166016    -35.473476    0.088282    8.254822    16.786001    -76.806602    11.421895    3.545007    55.911797    6.273838    -5.358427    -8.141657    -17.026981    -0.420465    -6.680156    0.472067    -24.746691    -70.722427    -19.659101    1.361365    52.393063    9.574300    4.438541    -8.117885    -17.514477    -1.659266    -3.035118    1.802291    
-8.122102    71.630104    122.514465    4.585042    -30.860838    -174.935287    1.397997    -1.521291    0.912501    3.870929    8.821466    0.595207    2.025122    -2.627288    -1.860309    5.110947    -25.999075    -0.432070    18.263666    -13.491396    -17.274654    -11.935959    1.164221    -79.389786    14.907233    8.727274    -10.052952    54.739285    4.099305    -11.496711    -15.182461    -2.659398    18.065664    15.197360    -7.629900    61.404541    -28.776144    -4.200327    26.309366    -35.532318    0.045462    8.190241    16.488117    -76.705162    11.149911    3.521652    55.672688    6.276763    -5.345731    -8.170075    -16.992533    -0.427423    -6.743619    0.479941    -24.725292    -70.601067    -19.575224    1.437718    52.146294    9.469546    4.439452    -8.053515    -17.509832    -1.651454    -3.085489    1.793938    
-8.127862    71.726875    122.508766    4.576550    -30.926987    -174.896500    1.386872    -1.547105    0.899432    3.878993    8.750600    0.583746    1.937583    -2.700301    -1.945029    5.509545    -25.754986    -0.373313    18.284912    -13.506894    -17.233219    -11.899550    1.217294    -79.476105    14.967304    8.725921    -10.100312    54.833237    4.135547    -11.424212    -15.142405    -2.592025    18.054352    15.230620    -7.561273    61.288033    -28.990385    -4.352740    26.459753    -35.588818    0.003558    8.126346    16.241770    -76.636459    10.927943    3.497339    55.454269    6.283307    -5.329939    -8.204250    -16.955711    -0.434380    -6.809261    0.487818    -24.743124    -70.511459    -19.538876    1.502361    51.921806    9.376532    4.441254    -7.993531    -17.503323    -1.644286    -3.142741    1.786299    
